<svg width="60" height="60" viewBox="0 0 60 60" fill="none" xmlns="http://www.w3.org/2000/svg">
<rect width="60" height="60" rx="12" fill="#FFCDCD"/>
<path d="M37.2368 20.3008C37.2368 20.1747 37.2338 20.0486 37.2274 19.9225C37.2213 19.7968 37.2119 19.6711 37.1995 19.5454C37.1875 19.42 37.172 19.2951 37.1532 19.1701C37.1348 19.0455 37.1133 18.9213 37.0889 18.7975C37.064 18.674 37.0365 18.551 37.0061 18.4286C36.9752 18.3063 36.9417 18.1847 36.9052 18.0643C36.8683 17.9435 36.8288 17.8238 36.7862 17.7052C36.7441 17.5863 36.6985 17.4689 36.6504 17.3522C36.6022 17.2359 36.551 17.1207 36.4972 17.0067C36.443 16.8926 36.3865 16.7801 36.3271 16.6687C36.2676 16.5576 36.2055 16.4481 36.1407 16.3397C36.0756 16.2317 36.0083 16.1252 35.9383 16.0202C35.8682 15.9155 35.7956 15.8124 35.7207 15.7111C35.6454 15.6099 35.5679 15.5105 35.4881 15.413C35.4079 15.3156 35.3255 15.22 35.2408 15.1266C35.1561 15.0333 35.0692 14.9418 34.98 14.8526C34.8912 14.7638 34.7997 14.6768 34.7064 14.5922C34.613 14.5075 34.5174 14.425 34.4199 14.3449C34.3224 14.2651 34.2231 14.1875 34.1218 14.1123C34.0206 14.0374 33.9175 13.9647 33.8128 13.8947C33.7078 13.8247 33.6013 13.757 33.4933 13.6922C33.3849 13.6275 33.2753 13.5654 33.1639 13.5059C33.0529 13.4464 32.9404 13.3896 32.8263 13.3358C32.7123 13.282 32.5971 13.2308 32.4808 13.1826C32.3641 13.1344 32.2467 13.0889 32.1277 13.0463C32.0092 13.0042 31.8895 12.9647 31.7687 12.9278C31.6482 12.8913 31.5267 12.8578 31.4043 12.8269C31.282 12.7964 31.1589 12.769 31.0355 12.7441C30.9117 12.7196 30.7874 12.6982 30.6629 12.6794C30.5379 12.6609 30.4129 12.6455 30.2872 12.6331C30.1619 12.621 30.0362 12.6116 29.9101 12.6056C29.7844 12.5992 29.6583 12.5962 29.5322 12.5962C29.4061 12.5962 29.28 12.5992 29.1543 12.6056C29.0282 12.6116 28.9025 12.621 28.7772 12.6331C28.6515 12.6455 28.5265 12.6609 28.4016 12.6794C28.277 12.6982 28.1528 12.7196 28.0293 12.7441C27.9055 12.769 27.7824 12.7964 27.6601 12.8269C27.5378 12.8578 27.4162 12.8913 27.2957 12.9278C27.1749 12.9647 27.0552 13.0042 26.9367 13.0463C26.8177 13.0889 26.7003 13.1344 26.584 13.1826C26.4673 13.2308 26.3521 13.282 26.2381 13.3358C26.1241 13.3896 26.0115 13.4464 25.9005 13.5059C25.7891 13.5654 25.6795 13.6275 25.5711 13.6922C25.4631 13.757 25.3566 13.8247 25.252 13.8947C25.147 13.9647 25.0438 14.0374 24.9426 14.1123C24.8413 14.1875 24.742 14.2651 24.6445 14.3449C24.547 14.425 24.4514 14.5075 24.3581 14.5922C24.2647 14.6768 24.1733 14.7638 24.0844 14.8526C23.9952 14.9418 23.9083 15.0333 23.8236 15.1266C23.7389 15.22 23.6565 15.3156 23.5767 15.413C23.4965 15.5105 23.419 15.6099 23.3437 15.7111C23.2688 15.8124 23.1962 15.9155 23.1262 16.0202C23.0562 16.1252 22.9888 16.2317 22.9237 16.3397C22.8589 16.4481 22.7968 16.5576 22.7374 16.6687C22.6779 16.7801 22.6214 16.8926 22.5672 17.0067C22.5134 17.1207 22.4622 17.2359 22.414 17.3522C22.3659 17.4689 22.3207 17.5863 22.2782 17.7052C22.2356 17.8238 22.1961 17.9435 22.1596 18.0643C22.1227 18.1847 22.0892 18.3063 22.0587 18.4286C22.0279 18.551 22.0004 18.674 21.9756 18.7975C21.9511 18.9213 21.9296 19.0455 21.9112 19.1701C21.8924 19.2951 21.8769 19.42 21.8649 19.5454C21.8525 19.6711 21.8431 19.7968 21.837 19.9225C21.8306 20.0486 21.8276 20.1747 21.8276 20.3008C21.8276 20.4268 21.8306 20.5529 21.837 20.6787C21.8431 20.8047 21.8525 20.9305 21.8649 21.0558C21.8769 21.1815 21.8924 21.3065 21.9112 21.431C21.9296 21.556 21.9511 21.6802 21.9756 21.8037C22.0004 21.9275 22.0279 22.0506 22.0587 22.1729C22.0892 22.2952 22.1227 22.4164 22.1596 22.5372C22.1961 22.6581 22.2356 22.7777 22.2782 22.8963C22.3207 23.0149 22.3659 23.1327 22.414 23.249C22.4622 23.3657 22.5134 23.4808 22.5672 23.5949C22.6214 23.7089 22.6779 23.8215 22.7374 23.9325C22.7968 24.0439 22.8589 24.1534 22.9237 24.2614C22.9888 24.3698 23.0562 24.4764 23.1262 24.581C23.1962 24.686 23.2688 24.7891 23.3437 24.8904C23.419 24.9916 23.4965 25.091 23.5767 25.1885C23.6565 25.286 23.7389 25.3812 23.8236 25.4749C23.9083 25.5682 23.9952 25.6593 24.0844 25.7485C24.1733 25.8377 24.2647 25.9247 24.3581 26.0094C24.4514 26.0941 24.547 26.1765 24.6445 26.2563C24.742 26.3364 24.8413 26.414 24.9426 26.4889C25.0438 26.5642 25.147 26.6368 25.252 26.7068C25.3566 26.7768 25.4631 26.8442 25.5711 26.9093C25.6795 26.974 25.7891 27.0361 25.9005 27.0956C26.0115 27.1551 26.1241 27.2115 26.2381 27.2654C26.3521 27.3196 26.4673 27.3704 26.584 27.4189C26.7003 27.4671 26.8177 27.5123 26.9367 27.5548C27.0552 27.5973 27.1749 27.6369 27.2957 27.6734C27.4162 27.7102 27.5378 27.7437 27.6601 27.7742C27.7824 27.8051 27.9055 27.8326 28.0293 27.857C28.1528 27.8819 28.277 27.9033 28.4016 27.9218C28.5265 27.9402 28.6515 27.9556 28.7772 27.9681C28.9025 27.9805 29.0282 27.9899 29.1543 27.9959C29.28 28.0023 29.4061 28.0053 29.5322 28.0053C29.6583 28.005 29.7844 28.0016 29.9101 27.9955C30.0358 27.9891 30.1615 27.9794 30.2869 27.9669C30.4126 27.9545 30.5375 27.9387 30.6621 27.9203C30.7867 27.9014 30.9109 27.88 31.0344 27.8552C31.1578 27.8303 31.2809 27.8025 31.4032 27.772C31.5252 27.7411 31.6467 27.7072 31.7672 27.6707C31.888 27.6338 32.0073 27.5943 32.1262 27.5518C32.2448 27.5093 32.3622 27.4637 32.4785 27.4152C32.5948 27.367 32.71 27.3158 32.8241 27.262C32.9381 27.2078 33.0503 27.1513 33.1617 27.0918C33.2727 27.0324 33.3822 26.9699 33.4903 26.9052C33.5983 26.8404 33.7048 26.7731 33.8094 26.7027C33.9144 26.6327 34.0172 26.56 34.1184 26.4851C34.2197 26.4098 34.3191 26.3323 34.4165 26.2525C34.514 26.1723 34.6092 26.0903 34.7026 26.0056C34.7959 25.9209 34.8874 25.834 34.9762 25.7448C35.0654 25.6556 35.1524 25.5645 35.2371 25.4711C35.3217 25.3778 35.4042 25.2822 35.484 25.1851C35.5638 25.0876 35.6417 24.9882 35.7166 24.887C35.7918 24.7857 35.8641 24.683 35.9345 24.578C36.0045 24.4733 36.0719 24.3668 36.1366 24.2588C36.2017 24.1508 36.2638 24.0413 36.3233 23.9302C36.3828 23.8188 36.4396 23.7063 36.4934 23.5926C36.5472 23.4786 36.5984 23.3634 36.647 23.2471C36.6952 23.1308 36.7407 23.0134 36.7832 22.8944C36.8258 22.7759 36.8653 22.6562 36.9022 22.5357C36.9387 22.4153 36.9726 22.2937 37.0034 22.1718C37.0343 22.0494 37.0618 21.9264 37.0866 21.8029C37.1114 21.6795 37.1329 21.5552 37.1517 21.4307C37.1705 21.3061 37.186 21.1807 37.1984 21.0554C37.2112 20.9301 37.2206 20.8044 37.227 20.6787C37.2334 20.5526 37.2364 20.4268 37.2368 20.3008ZM27.0052 20.3008C27.0052 20.2183 27.0089 20.1359 27.0172 20.0539C27.0251 19.9718 27.0375 19.8901 27.0533 19.8092C27.0695 19.7283 27.0895 19.6485 27.1136 19.5694C27.1373 19.4904 27.1651 19.4129 27.1967 19.3365C27.2284 19.2604 27.2634 19.1859 27.3025 19.1129C27.3413 19.0403 27.3834 18.9695 27.4294 18.901C27.4753 18.8325 27.5242 18.7662 27.5765 18.7023C27.6288 18.6387 27.6842 18.5773 27.7425 18.519C27.8008 18.4606 27.8618 18.4053 27.9258 18.353C27.9894 18.3007 28.0557 18.2514 28.1242 18.2054C28.1927 18.1599 28.2634 18.1174 28.3361 18.0782C28.4091 18.0394 28.4836 18.0041 28.5596 17.9725C28.6357 17.9408 28.7136 17.913 28.7922 17.8893C28.8713 17.8652 28.9511 17.8449 29.032 17.8287C29.1129 17.8129 29.1946 17.8004 29.2766 17.7925C29.3587 17.7843 29.4411 17.7801 29.5235 17.7801C29.606 17.7801 29.6884 17.7839 29.7705 17.7918C29.8525 17.8001 29.9342 17.8121 30.0151 17.8279C30.096 17.8441 30.1762 17.8641 30.2549 17.8878C30.3339 17.9119 30.4114 17.9393 30.4878 17.9709C30.5643 18.0026 30.6388 18.0376 30.7114 18.0763C30.7844 18.1151 30.8552 18.1573 30.9237 18.2032C30.9922 18.2491 31.0584 18.298 31.1224 18.3503C31.1864 18.4027 31.2474 18.4576 31.3057 18.516C31.3641 18.5743 31.4198 18.6353 31.4721 18.6989C31.5244 18.7629 31.5737 18.8287 31.6196 18.8972C31.6655 18.9661 31.7081 19.0365 31.7472 19.1091C31.786 19.1821 31.8214 19.2563 31.853 19.3327C31.8846 19.4087 31.9128 19.4863 31.9365 19.5653C31.9606 19.6443 31.981 19.7241 31.9971 19.8051C32.0133 19.886 32.0257 19.9673 32.034 20.0493C32.0419 20.1314 32.0461 20.2138 32.0464 20.2962C32.0464 20.379 32.0427 20.4611 32.0348 20.5435C32.0269 20.6256 32.0148 20.7069 31.999 20.7878C31.9828 20.8691 31.9629 20.9489 31.9392 21.0279C31.9155 21.107 31.888 21.1845 31.8564 21.2609C31.8251 21.3369 31.7898 21.4118 31.751 21.4845C31.7122 21.5575 31.6701 21.6283 31.6245 21.6968C31.5786 21.7656 31.5297 21.8319 31.4777 21.8959C31.4254 21.9595 31.3701 22.0208 31.3117 22.0792C31.2538 22.1379 31.1928 22.1932 31.1292 22.2455C31.0656 22.2982 30.9993 22.3475 30.9308 22.3935C30.8623 22.4394 30.7916 22.4819 30.7189 22.521C30.6463 22.5602 30.5722 22.5956 30.4957 22.6272C30.4197 22.6588 30.3422 22.687 30.2631 22.7111C30.1845 22.7352 30.1043 22.7555 30.0238 22.7717C29.9428 22.7879 29.8612 22.8003 29.7791 22.8086C29.6971 22.8169 29.6146 22.821 29.5322 22.8214C29.4498 22.821 29.3674 22.8169 29.2853 22.8086C29.2032 22.8003 29.1219 22.7883 29.041 22.7717C28.9601 22.7555 28.8803 22.7356 28.8013 22.7115C28.7222 22.6874 28.6447 22.6596 28.5687 22.6279C28.4923 22.5959 28.4181 22.5609 28.3451 22.5218C28.2725 22.483 28.2021 22.4405 28.1332 22.3946C28.0647 22.3487 27.9984 22.2997 27.9348 22.247C27.8712 22.1947 27.8099 22.1394 27.7519 22.0811C27.6936 22.0227 27.6379 21.9617 27.5856 21.8981C27.5332 21.8341 27.4843 21.7683 27.4384 21.6994C27.3925 21.6309 27.3499 21.5605 27.3112 21.4875C27.272 21.4149 27.2366 21.3403 27.205 21.2643C27.1734 21.1883 27.1456 21.1107 27.1215 21.0317C27.0974 20.9527 27.0774 20.8729 27.0609 20.7919C27.0447 20.711 27.0326 20.6297 27.0244 20.5477C27.0161 20.4656 27.0119 20.3832 27.0116 20.3008H27.0052Z" fill="#333333"/>
<path d="M15.5096 28.705C15.4197 28.795 15.3346 28.8895 15.254 28.9877C15.1731 29.0859 15.0975 29.1883 15.0271 29.2941C14.9563 29.3998 14.8908 29.509 14.831 29.6212C14.7711 29.7333 14.7169 29.8481 14.668 29.9659C14.6195 30.0834 14.5769 30.203 14.54 30.325C14.5028 30.4466 14.4719 30.57 14.4475 30.6946C14.4226 30.8196 14.4038 30.9453 14.3914 31.0717C14.379 31.1986 14.3726 31.3254 14.3726 31.4526C14.3726 31.5799 14.379 31.7067 14.3914 31.8332C14.4038 31.96 14.4226 32.0857 14.4475 32.2103C14.4719 32.3353 14.5028 32.4583 14.54 32.5803C14.5769 32.7022 14.6195 32.8215 14.668 32.9394C14.7169 33.0568 14.7711 33.1716 14.831 33.2841C14.8908 33.3963 14.9563 33.5051 15.0271 33.6112C15.0975 33.717 15.1731 33.819 15.254 33.9172C15.3346 34.0158 15.4197 34.1099 15.5096 34.1999C16.4058 35.0964 17.3791 35.8985 18.43 36.6072C19.4808 37.3156 20.5897 37.9174 21.7564 38.412L18.0694 42.099C17.9843 42.1901 17.9042 42.285 17.8285 42.3836C17.7525 42.4826 17.6817 42.5846 17.6159 42.6903C17.55 42.7957 17.4894 42.9045 17.4337 43.0159C17.3784 43.1273 17.3283 43.241 17.2835 43.3573C17.2391 43.4732 17.2003 43.5914 17.1668 43.7115C17.1337 43.8315 17.1062 43.9527 17.0848 44.075C17.0629 44.1977 17.0475 44.3212 17.0377 44.4454C17.0279 44.5692 17.0242 44.6934 17.0264 44.818C17.0287 44.9426 17.0366 45.0664 17.0509 45.1903C17.0648 45.3137 17.0852 45.4364 17.1107 45.5584C17.1367 45.6799 17.1683 45.8004 17.206 45.9189C17.2432 46.0379 17.2865 46.1542 17.3351 46.269C17.3836 46.3834 17.4378 46.4956 17.4969 46.6047C17.5564 46.7142 17.6211 46.8204 17.6908 46.9239C17.7604 47.027 17.8345 47.1264 17.914 47.2224C17.993 47.3187 18.0765 47.4105 18.1646 47.4986C18.2527 47.5867 18.3445 47.6703 18.4405 47.7493C18.5369 47.8287 18.6362 47.9029 18.7394 47.9725C18.8425 48.0421 18.949 48.1069 19.0582 48.166C19.1677 48.2254 19.2798 48.2796 19.3943 48.3282C19.5087 48.3767 19.6254 48.42 19.7443 48.4573C19.8629 48.4949 19.9829 48.5265 20.1049 48.5521C20.2265 48.5781 20.3492 48.598 20.473 48.6123C20.5968 48.6263 20.7206 48.6345 20.8452 48.6368C20.9694 48.6391 21.094 48.6353 21.2178 48.6255C21.3421 48.6157 21.4655 48.5999 21.5878 48.5785C21.7105 48.557 21.8317 48.5295 21.9518 48.4964C22.0719 48.4629 22.1897 48.4242 22.306 48.3794C22.4223 48.3349 22.5359 48.2849 22.6473 48.2296C22.7588 48.1739 22.8675 48.1133 22.9729 48.0474C23.0787 47.9815 23.1807 47.9104 23.2793 47.8347C23.3783 47.7591 23.4731 47.6789 23.5642 47.5938L29.5322 41.6131L35.5133 47.5938C35.604 47.6789 35.6992 47.7591 35.7978 47.8347C35.8964 47.9104 35.9988 47.9815 36.1042 48.0474C36.21 48.1133 36.3183 48.1739 36.4298 48.2296C36.5412 48.2849 36.6552 48.3349 36.7711 48.3794C36.8874 48.4242 37.0056 48.4629 37.1257 48.496C37.2454 48.5295 37.3666 48.557 37.4893 48.5785C37.612 48.5999 37.7354 48.6157 37.8593 48.6255C37.9835 48.6353 38.1077 48.6391 38.2323 48.6368C38.3565 48.6345 38.4807 48.6263 38.6045 48.6123C38.728 48.598 38.8507 48.5781 38.9726 48.5521C39.0942 48.5265 39.2142 48.4945 39.3332 48.4573C39.4517 48.42 39.5684 48.3767 39.6828 48.3282C39.7976 48.2796 39.9094 48.2254 40.019 48.166C40.1285 48.1069 40.2346 48.0421 40.3377 47.9725C40.4409 47.9029 40.5406 47.8287 40.6366 47.7493C40.7326 47.6703 40.8248 47.5867 40.9129 47.4986C41.0009 47.4105 41.0845 47.3187 41.1635 47.2224C41.2426 47.1264 41.3171 47.027 41.3867 46.9235C41.4564 46.8204 41.5207 46.7142 41.5802 46.6047C41.6397 46.4956 41.6935 46.3834 41.7424 46.269C41.791 46.1542 41.8339 46.0379 41.8715 45.9189C41.9088 45.8004 41.9404 45.6799 41.9664 45.5584C41.9923 45.4364 42.0123 45.3137 42.0266 45.1903C42.0405 45.0664 42.0488 44.9426 42.051 44.818C42.0529 44.6934 42.0492 44.5692 42.0394 44.4454C42.03 44.3212 42.0142 44.1977 41.9927 44.075C41.9709 43.9527 41.9434 43.8315 41.9103 43.7115C41.8772 43.5914 41.8384 43.4732 41.7936 43.3573C41.7492 43.241 41.6991 43.1273 41.6434 43.0159C41.5881 42.9045 41.5271 42.7957 41.4613 42.6903C41.3954 42.5846 41.3246 42.4826 41.249 42.3836C41.1733 42.285 41.0928 42.1901 41.0081 42.099L37.3079 38.412C38.4724 37.9167 39.579 37.3144 40.6276 36.6061C41.6762 35.8977 42.6476 35.0957 43.5415 34.1999C43.6367 34.1114 43.7275 34.0181 43.8133 33.9202C43.8991 33.8224 43.98 33.7204 44.0557 33.6142C44.1313 33.5084 44.2013 33.3989 44.2661 33.286C44.3308 33.1727 44.3895 33.0568 44.4426 32.9379C44.4957 32.8189 44.5423 32.6977 44.5834 32.5743C44.624 32.4504 44.6586 32.3251 44.6869 32.1979C44.7151 32.071 44.7365 31.9427 44.752 31.8132C44.7674 31.6841 44.7761 31.5543 44.7783 31.424C44.7806 31.2938 44.7764 31.164 44.7659 31.0341C44.755 30.9046 44.7377 30.7755 44.714 30.6476C44.6902 30.5196 44.6601 30.3931 44.624 30.2682C44.5875 30.1432 44.545 30.0201 44.496 29.8993C44.4475 29.7789 44.3925 29.6607 44.3319 29.5455C44.2713 29.4303 44.2051 29.3185 44.1332 29.2098C44.0613 29.1014 43.9845 28.9967 43.9021 28.8959C43.8197 28.795 43.7323 28.6986 43.6401 28.6064C43.5483 28.5142 43.4519 28.4273 43.3511 28.3448C43.2502 28.2624 43.1456 28.1853 43.0368 28.1134C42.9284 28.0415 42.8162 27.9752 42.7011 27.9146C42.5859 27.854 42.4681 27.7995 42.3473 27.7505C42.2264 27.702 42.1037 27.6594 41.9788 27.6229C41.8538 27.5864 41.727 27.5563 41.599 27.5326C41.471 27.5089 41.3423 27.4916 41.2125 27.481C41.0826 27.4701 40.9528 27.466 40.8225 27.4682C40.6923 27.4705 40.5628 27.4795 40.4333 27.4946C40.3039 27.51 40.1759 27.5319 40.0487 27.5601C39.9215 27.5883 39.7961 27.6226 39.6727 27.6636C39.5488 27.7042 39.4277 27.7513 39.3087 27.8044C39.1898 27.8571 39.0739 27.9161 38.9609 27.9805C38.848 28.0452 38.7385 28.1156 38.6324 28.1913C38.5262 28.2669 38.4246 28.3475 38.3267 28.4333C38.2289 28.5191 38.1355 28.6098 38.0467 28.705C37.9071 28.8443 37.764 28.9802 37.6176 29.1123C37.4716 29.2448 37.3222 29.3731 37.1694 29.4981C37.0169 29.623 36.8611 29.7442 36.7026 29.8613C36.5442 29.9787 36.3827 30.092 36.2186 30.2015C36.0545 30.3111 35.8881 30.4161 35.7188 30.5173C35.5494 30.6186 35.3778 30.7157 35.2039 30.8087C35.03 30.9012 34.8538 30.9897 34.6754 31.074C34.497 31.1583 34.3167 31.2381 34.1346 31.3134C33.952 31.3887 33.768 31.4594 33.5824 31.5257C33.3969 31.5923 33.2094 31.654 33.0209 31.7108C32.8319 31.7681 32.6418 31.8207 32.4506 31.8685C32.2594 31.9163 32.0667 31.9593 31.8733 31.998C31.6802 32.0364 31.4856 32.0699 31.2906 32.0989C31.0957 32.1275 30.8999 32.1516 30.7035 32.1712C30.5074 32.1904 30.3109 32.2047 30.1137 32.2144C29.9168 32.2242 29.7196 32.2291 29.5224 32.2291C29.3251 32.2291 29.1283 32.2242 28.9311 32.2144C28.7342 32.2047 28.5374 32.1904 28.3413 32.1712C28.1452 32.1516 27.9495 32.1275 27.7541 32.0989C27.5592 32.0699 27.3649 32.0364 27.1715 31.998C26.978 31.9593 26.7857 31.9163 26.5945 31.8685C26.4029 31.8207 26.2128 31.7681 26.0243 31.7108C25.8353 31.654 25.6483 31.5923 25.4623 31.5257C25.2768 31.4594 25.0927 31.3887 24.9105 31.3134C24.7284 31.2381 24.5481 31.1583 24.3697 31.074C24.1913 30.9897 24.0151 30.9012 23.8409 30.8087C23.667 30.7157 23.4953 30.6186 23.326 30.5173C23.157 30.4161 22.9902 30.3111 22.8261 30.2015C22.662 30.092 22.5006 29.9787 22.3421 29.8613C22.1836 29.7442 22.0282 29.623 21.8754 29.4981C21.723 29.3731 21.5735 29.2448 21.4271 29.1123C21.2807 28.9802 21.1377 28.8443 20.998 28.705C20.9081 28.6155 20.814 28.5304 20.7157 28.4499C20.6175 28.3693 20.5155 28.294 20.4097 28.2236C20.304 28.1533 20.1948 28.0882 20.083 28.0283C19.9709 27.9685 19.8561 27.9143 19.7387 27.8661C19.6212 27.8175 19.5015 27.7746 19.38 27.7381C19.2584 27.7012 19.1353 27.6704 19.0107 27.6455C18.8861 27.6211 18.7604 27.6022 18.6343 27.5898C18.5079 27.5774 18.381 27.5714 18.2538 27.5714C18.127 27.5714 18.0001 27.5774 17.8737 27.5898C17.7472 27.6022 17.6219 27.6211 17.4973 27.6455C17.3727 27.6704 17.2496 27.7012 17.1281 27.7381C17.0061 27.7746 16.8868 27.8175 16.7694 27.8661C16.6519 27.9143 16.5371 27.9685 16.425 28.0283C16.3128 28.0882 16.204 28.1533 16.0983 28.2236C15.9925 28.294 15.8905 28.3693 15.7923 28.4499C15.694 28.5304 15.5996 28.6155 15.5096 28.705Z" fill="#333333"/>
</svg>
