<svg width="127" height="56" viewBox="0 0 127 56" fill="none" xmlns="http://www.w3.org/2000/svg">
<g clip-path="url(#clip0_19_267)">
<path d="M18.8534 10.0605C19.1254 9.99089 19.425 10.0081 19.5776 10.0323C19.6154 10.0377 20.2185 10.1407 21.219 10.311C21.8938 7.68673 23.3169 5.18646 26.268 4.86383C26.3487 4.85501 26.4335 4.84877 26.5184 4.84403C27.2448 3.72934 28.2359 3.17137 29.1331 3.07328C36.0051 2.322 40.154 9.88418 41.6235 13.7969C44.3769 14.2677 46.333 14.6026 46.5833 14.6465C48.1205 14.9144 48.1724 14.9528 48.5094 16.2263C48.7645 17.1907 55.7045 44.5739 55.7045 44.5739L25.8915 53.1457L18.8534 10.0605ZM22.9516 10.6066C23.7384 10.7411 24.6329 10.8937 25.6033 11.0592C25.5835 10.8924 25.5655 10.728 25.5458 10.5481C25.3746 8.98177 25.4732 7.69394 25.7413 6.65261C24.2401 6.99527 23.4019 8.70028 22.9516 10.6066ZM27.6613 6.75729C27.3441 7.78023 27.2238 9.21102 27.4305 11.1022C27.4411 11.1987 27.4508 11.2871 27.4627 11.3763C29.186 11.6715 31.0604 11.991 32.9383 12.3122C31.517 8.78515 29.4081 7.23747 27.6613 6.75729ZM29.5078 4.75189C29.2106 4.78439 28.9218 4.91002 28.6552 5.12276C30.963 5.83747 33.587 7.98634 35.1093 12.6833C36.6113 12.9399 38.0799 13.191 39.4379 13.4229C37.8692 9.88514 34.4435 4.2123 29.5078 4.75189Z" fill="#EB5757"/>
<path d="M11.3365 14.2956C11.5293 14.2599 15.5945 13.5317 15.5945 13.5317C15.5945 13.5317 18.1526 10.6175 18.433 10.2951C18.5388 10.1753 18.6904 10.1031 18.8529 10.061L25.8888 53.1466L9.06426 51.6621C9.06426 51.6621 10.9063 14.9966 10.9161 14.7457C10.9259 14.4942 11.1455 14.3322 11.3366 14.2961" fill="#FFCDCD"/>
</g>
<path d="M45.252 39H49.392L44.784 21.18L42.732 26.58L45.252 39ZM37.152 35.616L38.232 40.116L45.144 27.552L44.784 21.18L37.152 35.616ZM38.232 40.116L39.312 35.616L31.752 21.18L31.392 27.552L38.232 40.116ZM27.18 39H31.32L33.84 26.58L31.752 21.18L27.18 39Z" fill="#333333"/>
<path d="M54.5023 34.104C54.5023 33.528 54.6343 33.036 54.8983 32.628C55.1863 32.196 55.6063 31.872 56.1583 31.656C56.7343 31.416 57.4303 31.296 58.2463 31.296C59.2543 31.296 60.1423 31.428 60.9103 31.692C61.6783 31.932 62.4343 32.328 63.1783 32.88V30.828C62.9863 30.588 62.6383 30.312 62.1343 30C61.6303 29.688 60.9943 29.412 60.2263 29.172C59.4823 28.932 58.6303 28.812 57.6703 28.812C56.2303 28.812 54.9703 29.028 53.8903 29.46C52.8343 29.892 52.0183 30.516 51.4423 31.332C50.8663 32.148 50.5783 33.12 50.5783 34.248C50.5783 35.376 50.8303 36.324 51.3343 37.092C51.8623 37.836 52.5583 38.4 53.4223 38.784C54.3103 39.168 55.2943 39.36 56.3743 39.36C57.5263 39.36 58.5703 39.168 59.5063 38.784C60.4423 38.376 61.1863 37.8 61.7383 37.056C62.2903 36.288 62.5663 35.376 62.5663 34.32L61.9903 32.448C61.9903 33.408 61.7983 34.176 61.4143 34.752C61.0303 35.328 60.5023 35.748 59.8303 36.012C59.1583 36.276 58.4023 36.408 57.5623 36.408C56.9863 36.408 56.4703 36.324 56.0143 36.156C55.5583 35.964 55.1863 35.7 54.8983 35.364C54.6343 35.028 54.5023 34.608 54.5023 34.104ZM53.6383 26.796C53.9023 26.628 54.2743 26.424 54.7543 26.184C55.2583 25.92 55.8463 25.692 56.5183 25.5C57.1903 25.308 57.9223 25.212 58.7143 25.212C59.6263 25.212 60.3943 25.428 61.0183 25.86C61.6663 26.268 61.9903 26.856 61.9903 27.624V39H65.8063V27.192C65.8063 26.088 65.5063 25.164 64.9063 24.42C64.3303 23.652 63.5263 23.064 62.4943 22.656C61.4623 22.248 60.2623 22.044 58.8943 22.044C57.4063 22.044 56.0863 22.26 54.9343 22.692C53.7823 23.124 52.8343 23.568 52.0903 24.024L53.6383 26.796ZM70.5147 22.44V39H74.3667V25.86H80.0187V22.44H70.5147ZM85.0883 34.104C85.0883 33.528 85.2203 33.036 85.4843 32.628C85.7723 32.196 86.1923 31.872 86.7443 31.656C87.3203 31.416 88.0163 31.296 88.8323 31.296C89.8403 31.296 90.7283 31.428 91.4963 31.692C92.2643 31.932 93.0203 32.328 93.7643 32.88V30.828C93.5723 30.588 93.2243 30.312 92.7203 30C92.2163 29.688 91.5803 29.412 90.8123 29.172C90.0683 28.932 89.2163 28.812 88.2563 28.812C86.8163 28.812 85.5563 29.028 84.4763 29.46C83.4203 29.892 82.6043 30.516 82.0283 31.332C81.4523 32.148 81.1643 33.12 81.1643 34.248C81.1643 35.376 81.4163 36.324 81.9203 37.092C82.4483 37.836 83.1443 38.4 84.0083 38.784C84.8963 39.168 85.8803 39.36 86.9603 39.36C88.1123 39.36 89.1563 39.168 90.0923 38.784C91.0283 38.376 91.7723 37.8 92.3243 37.056C92.8763 36.288 93.1523 35.376 93.1523 34.32L92.5763 32.448C92.5763 33.408 92.3843 34.176 92.0003 34.752C91.6163 35.328 91.0883 35.748 90.4163 36.012C89.7443 36.276 88.9883 36.408 88.1483 36.408C87.5723 36.408 87.0563 36.324 86.6003 36.156C86.1443 35.964 85.7723 35.7 85.4843 35.364C85.2203 35.028 85.0883 34.608 85.0883 34.104ZM84.2243 26.796C84.4883 26.628 84.8603 26.424 85.3403 26.184C85.8443 25.92 86.4323 25.692 87.1043 25.5C87.7763 25.308 88.5083 25.212 89.3003 25.212C90.2123 25.212 90.9803 25.428 91.6043 25.86C92.2523 26.268 92.5763 26.856 92.5763 27.624V39H96.3923V27.192C96.3923 26.088 96.0923 25.164 95.4923 24.42C94.9163 23.652 94.1123 23.064 93.0803 22.656C92.0483 22.248 90.8483 22.044 89.4803 22.044C87.9923 22.044 86.6723 22.26 85.5203 22.692C84.3683 23.124 83.4203 23.568 82.6763 24.024L84.2243 26.796ZM107.545 30.72C109.657 30.768 111.265 30.408 112.369 29.64C113.473 28.848 114.025 27.852 114.025 26.652C114.025 25.812 113.761 25.044 113.233 24.348C112.705 23.652 111.973 23.1 111.037 22.692C110.101 22.284 109.045 22.08 107.869 22.08C106.621 22.08 105.505 22.32 104.521 22.8C103.561 23.28 102.805 23.928 102.253 24.744C101.701 25.56 101.425 26.484 101.425 27.516H105.169C105.169 27.132 105.265 26.772 105.457 26.436C105.673 26.076 105.985 25.788 106.393 25.572C106.801 25.332 107.305 25.212 107.905 25.212C108.625 25.212 109.189 25.38 109.597 25.716C110.029 26.052 110.245 26.496 110.245 27.048C110.245 27.6 110.029 28.068 109.597 28.452C109.189 28.812 108.505 28.992 107.545 28.992V30.72ZM107.797 39.36C109.093 39.36 110.269 39.156 111.325 38.748C112.381 38.316 113.209 37.716 113.809 36.948C114.433 36.156 114.745 35.22 114.745 34.14C114.745 32.604 114.097 31.464 112.801 30.72C111.529 29.952 109.777 29.592 107.545 29.64V31.548C108.289 31.548 108.913 31.644 109.417 31.836C109.945 32.028 110.341 32.304 110.605 32.664C110.869 33.024 111.001 33.456 111.001 33.96C111.001 34.44 110.869 34.86 110.605 35.22C110.365 35.556 110.005 35.82 109.525 36.012C109.045 36.204 108.469 36.3 107.797 36.3C106.765 36.3 105.985 36.048 105.457 35.544C104.953 35.016 104.617 34.368 104.449 33.6H100.633C100.825 35.304 101.533 36.696 102.757 37.776C104.005 38.832 105.685 39.36 107.797 39.36Z" fill="white"/>
<defs>
<clipPath id="clip0_19_267">
<rect width="53.5471" height="49.4236" fill="white" transform="translate(0.891846 6.16443) rotate(-6.23909)"/>
</clipPath>
</defs>
</svg>
