<svg width="60" height="60" viewBox="0 0 60 60" fill="none" xmlns="http://www.w3.org/2000/svg">
<rect width="60" height="60" rx="12" fill="#FFCDCD"/>
<path d="M24.2118 30.1569C23.3842 30.645 22.2415 29.6544 19.8162 25.138C18.5637 22.8247 18.4318 21.3167 17.6186 20.2669C17.4262 20.0488 17.2046 19.8662 16.9543 19.7196C16.7039 19.5731 16.4366 19.4699 16.1532 19.4098H10.2927C10.2927 19.4098 9.29618 19.3211 9.09113 19.602C8.88609 19.8829 9.09113 20.7181 9.09113 20.7181C9.09113 20.7181 13.6775 32.1749 18.8785 37.9553C23.5967 43.2477 29.0032 42.9887 29.0032 42.9887C29.0032 42.9887 32.1533 43.1366 32.5782 42.3603C32.6871 42.1896 32.7702 42.0065 32.8277 41.8117C32.8851 41.6173 32.9143 41.418 32.9152 41.2148C32.9152 41.2148 32.8638 37.6964 34.3805 37.1864C35.8968 36.6764 37.8236 40.5719 39.8676 42.0794C41.4644 43.1586 41.9115 42.9887 42.6442 42.9887H48.1238C48.1238 42.9887 50.9958 42.6859 49.6331 40.2835C49.523 40.0838 48.8417 38.5096 45.5597 35.2571C42.1239 31.8497 42.5854 32.404 46.7246 26.513C49.2448 22.9282 50.2557 20.74 49.9335 19.8013C49.7428 19.2619 47.7721 19.4098 47.7721 19.4098H41.5819C41.4522 19.4054 41.3242 19.4168 41.1975 19.444C41.0709 19.4712 40.9494 19.5129 40.8327 19.5695C40.7161 19.6262 40.6077 19.6959 40.5075 19.7789C40.4074 19.8618 40.3186 19.9558 40.2411 20.0602C39.5524 21.2798 39.2668 22.8392 37.963 25.1898C35.2155 30.1719 34.1167 30.4304 33.6696 30.1201C32.6222 29.381 32.886 27.2226 32.886 25.6853C32.886 20.8585 33.5747 18.848 31.5526 18.2937C31.0719 18.1678 30.5835 18.0914 30.0872 18.0642C29.3036 18.0054 28.5121 17.9905 27.7211 18.0054C25.8896 18.0054 24.4608 18.0717 23.5601 18.5448C22.8274 18.9068 22.3146 19.7275 22.6516 19.7793C22.8274 19.8017 22.9994 19.8416 23.1675 19.8983C23.3359 19.9553 23.497 20.0282 23.6507 20.1168C23.8048 20.2055 23.9489 20.3086 24.0825 20.4258C24.2166 20.5434 24.3376 20.6724 24.4465 20.8142C25.0764 21.738 25.0547 23.7709 25.0547 23.7709C25.0547 23.7709 25.4208 29.4547 24.2118 30.1569Z" fill="#333333"/>
</svg>
